<mxfile host="app.diagrams.net" agent="Mozilla/5.0 (Windows NT 10.0; Win64; x64) AppleWebKit/537.36 (KHTML, like Gecko) Chrome/141.0.0.0 Safari/537.36" version="28.2.5">
  <diagram name="Page-1" id="HZ7dvvCu67xyo6Tbicvt">
    <mxGraphModel grid="1" page="1" gridSize="10" guides="1" tooltips="1" connect="1" arrows="1" fold="1" pageScale="1" pageWidth="827" pageHeight="1169" math="0" shadow="0">
      <root>
        <mxCell id="0" />
        <mxCell id="1" parent="0" />
        <mxCell id="QzqRH83dT1mqWbRdbADa-1" value="Acquis d&#39;apprentissage terminaux" style="swimlane;fontStyle=0;childLayout=stackLayout;horizontal=1;startSize=26;horizontalStack=0;resizeParent=1;resizeParentMax=0;resizeLast=0;collapsible=1;marginBottom=0;align=center;fontSize=14;" vertex="1" parent="1">
          <mxGeometry x="220" y="25" width="260" height="56" as="geometry" />
        </mxCell>
        <mxCell id="QzqRH83dT1mqWbRdbADa-2" value="description" style="text;strokeColor=none;fillColor=none;spacingLeft=4;spacingRight=4;overflow=hidden;rotatable=0;points=[[0,0.5],[1,0.5]];portConstraint=eastwest;fontSize=12;whiteSpace=wrap;html=1;" vertex="1" parent="QzqRH83dT1mqWbRdbADa-1">
          <mxGeometry y="26" width="260" height="30" as="geometry" />
        </mxCell>
        <mxCell id="QzqRH83dT1mqWbRdbADa-9" style="edgeStyle=orthogonalEdgeStyle;rounded=0;orthogonalLoop=1;jettySize=auto;html=1;exitX=0.5;exitY=0;exitDx=0;exitDy=0;" edge="1" parent="1" source="QzqRH83dT1mqWbRdbADa-5" target="QzqRH83dT1mqWbRdbADa-1">
          <mxGeometry relative="1" as="geometry" />
        </mxCell>
        <mxCell id="QzqRH83dT1mqWbRdbADa-5" value="acquis d&#39;apprentissage" style="swimlane;fontStyle=0;childLayout=stackLayout;horizontal=1;startSize=26;horizontalStack=0;resizeParent=1;resizeParentMax=0;resizeLast=0;collapsible=1;marginBottom=0;align=center;fontSize=14;" vertex="1" parent="1">
          <mxGeometry x="240" y="155" width="220" height="86" as="geometry" />
        </mxCell>
        <mxCell id="QzqRH83dT1mqWbRdbADa-6" value="description" style="text;strokeColor=none;fillColor=none;spacingLeft=4;spacingRight=4;overflow=hidden;rotatable=0;points=[[0,0.5],[1,0.5]];portConstraint=eastwest;fontSize=12;whiteSpace=wrap;html=1;" vertex="1" parent="QzqRH83dT1mqWbRdbADa-5">
          <mxGeometry y="26" width="220" height="30" as="geometry" />
        </mxCell>
        <mxCell id="QzqRH83dT1mqWbRdbADa-7" value="fk_AAT" style="text;strokeColor=none;fillColor=none;spacingLeft=4;spacingRight=4;overflow=hidden;rotatable=0;points=[[0,0.5],[1,0.5]];portConstraint=eastwest;fontSize=12;whiteSpace=wrap;html=1;" vertex="1" parent="QzqRH83dT1mqWbRdbADa-5">
          <mxGeometry y="56" width="220" height="30" as="geometry" />
        </mxCell>
        <mxCell id="QzqRH83dT1mqWbRdbADa-10" value="unite d&#39;enseignement" style="swimlane;fontStyle=0;childLayout=stackLayout;horizontal=1;startSize=26;horizontalStack=0;resizeParent=1;resizeParentMax=0;resizeLast=0;collapsible=1;marginBottom=0;align=center;fontSize=14;" vertex="1" parent="1">
          <mxGeometry x="720" y="310" width="160" height="206" as="geometry" />
        </mxCell>
        <mxCell id="QzqRH83dT1mqWbRdbADa-11" value="id" style="text;strokeColor=none;fillColor=none;spacingLeft=4;spacingRight=4;overflow=hidden;rotatable=0;points=[[0,0.5],[1,0.5]];portConstraint=eastwest;fontSize=12;whiteSpace=wrap;html=1;" vertex="1" parent="QzqRH83dT1mqWbRdbADa-10">
          <mxGeometry y="26" width="160" height="30" as="geometry" />
        </mxCell>
        <mxCell id="QzqRH83dT1mqWbRdbADa-12" value="description" style="text;strokeColor=none;fillColor=none;spacingLeft=4;spacingRight=4;overflow=hidden;rotatable=0;points=[[0,0.5],[1,0.5]];portConstraint=eastwest;fontSize=12;whiteSpace=wrap;html=1;" vertex="1" parent="QzqRH83dT1mqWbRdbADa-10">
          <mxGeometry y="56" width="160" height="30" as="geometry" />
        </mxCell>
        <mxCell id="QzqRH83dT1mqWbRdbADa-13" value="code" style="text;strokeColor=none;fillColor=none;spacingLeft=4;spacingRight=4;overflow=hidden;rotatable=0;points=[[0,0.5],[1,0.5]];portConstraint=eastwest;fontSize=12;whiteSpace=wrap;html=1;" vertex="1" parent="QzqRH83dT1mqWbRdbADa-10">
          <mxGeometry y="86" width="160" height="30" as="geometry" />
        </mxCell>
        <mxCell id="QzqRH83dT1mqWbRdbADa-14" value="ects" style="text;strokeColor=none;fillColor=none;spacingLeft=4;spacingRight=4;overflow=hidden;rotatable=0;points=[[0,0.5],[1,0.5]];portConstraint=eastwest;fontSize=12;whiteSpace=wrap;html=1;" vertex="1" parent="QzqRH83dT1mqWbRdbADa-10">
          <mxGeometry y="116" width="160" height="30" as="geometry" />
        </mxCell>
        <mxCell id="o4MGyngnCkDarMU_6XpX-3" value="date_begin" style="text;strokeColor=none;fillColor=none;spacingLeft=4;spacingRight=4;overflow=hidden;rotatable=0;points=[[0,0.5],[1,0.5]];portConstraint=eastwest;fontSize=12;whiteSpace=wrap;html=1;" vertex="1" parent="QzqRH83dT1mqWbRdbADa-10">
          <mxGeometry y="146" width="160" height="30" as="geometry" />
        </mxCell>
        <mxCell id="o4MGyngnCkDarMU_6XpX-4" value="date_end" style="text;strokeColor=none;fillColor=none;spacingLeft=4;spacingRight=4;overflow=hidden;rotatable=0;points=[[0,0.5],[1,0.5]];portConstraint=eastwest;fontSize=12;whiteSpace=wrap;html=1;" vertex="1" parent="QzqRH83dT1mqWbRdbADa-10">
          <mxGeometry y="176" width="160" height="30" as="geometry" />
        </mxCell>
        <mxCell id="QzqRH83dT1mqWbRdbADa-31" style="edgeStyle=orthogonalEdgeStyle;rounded=0;orthogonalLoop=1;jettySize=auto;html=1;" edge="1" parent="1" source="QzqRH83dT1mqWbRdbADa-26" target="QzqRH83dT1mqWbRdbADa-5">
          <mxGeometry relative="1" as="geometry" />
        </mxCell>
        <mxCell id="QzqRH83dT1mqWbRdbADa-26" value="AAV_UE_prerequis" style="swimlane;fontStyle=0;childLayout=stackLayout;horizontal=1;startSize=26;horizontalStack=0;resizeParent=1;resizeParentMax=0;resizeLast=0;collapsible=1;marginBottom=0;align=center;fontSize=14;" vertex="1" parent="1">
          <mxGeometry x="270" y="338" width="160" height="86" as="geometry" />
        </mxCell>
        <mxCell id="QzqRH83dT1mqWbRdbADa-27" value="fk_UE" style="text;strokeColor=none;fillColor=none;spacingLeft=4;spacingRight=4;overflow=hidden;rotatable=0;points=[[0,0.5],[1,0.5]];portConstraint=eastwest;fontSize=12;whiteSpace=wrap;html=1;" vertex="1" parent="QzqRH83dT1mqWbRdbADa-26">
          <mxGeometry y="26" width="160" height="30" as="geometry" />
        </mxCell>
        <mxCell id="QzqRH83dT1mqWbRdbADa-28" value="FK_AAV" style="text;strokeColor=none;fillColor=none;spacingLeft=4;spacingRight=4;overflow=hidden;rotatable=0;points=[[0,0.5],[1,0.5]];portConstraint=eastwest;fontSize=12;whiteSpace=wrap;html=1;" vertex="1" parent="QzqRH83dT1mqWbRdbADa-26">
          <mxGeometry y="56" width="160" height="30" as="geometry" />
        </mxCell>
        <mxCell id="QzqRH83dT1mqWbRdbADa-30" style="edgeStyle=orthogonalEdgeStyle;rounded=0;orthogonalLoop=1;jettySize=auto;html=1;" edge="1" parent="1" source="QzqRH83dT1mqWbRdbADa-12" target="QzqRH83dT1mqWbRdbADa-26">
          <mxGeometry relative="1" as="geometry" />
        </mxCell>
        <mxCell id="o4MGyngnCkDarMU_6XpX-5" value="représente les prérequis des unités d&#39;enseignement&amp;nbsp;" style="text;html=1;align=center;verticalAlign=middle;resizable=0;points=[];autosize=1;strokeColor=none;fillColor=none;" vertex="1" parent="1">
          <mxGeometry x="200" y="440" width="300" height="30" as="geometry" />
        </mxCell>
        <mxCell id="o4MGyngnCkDarMU_6XpX-6" value="AAV_UE_terminaux" style="swimlane;fontStyle=0;childLayout=stackLayout;horizontal=1;startSize=26;horizontalStack=0;resizeParent=1;resizeParentMax=0;resizeLast=0;collapsible=1;marginBottom=0;align=center;fontSize=14;" vertex="1" parent="1">
          <mxGeometry x="720" y="153" width="160" height="86" as="geometry" />
        </mxCell>
        <mxCell id="o4MGyngnCkDarMU_6XpX-7" value="fk_UE" style="text;strokeColor=none;fillColor=none;spacingLeft=4;spacingRight=4;overflow=hidden;rotatable=0;points=[[0,0.5],[1,0.5]];portConstraint=eastwest;fontSize=12;whiteSpace=wrap;html=1;" vertex="1" parent="o4MGyngnCkDarMU_6XpX-6">
          <mxGeometry y="26" width="160" height="30" as="geometry" />
        </mxCell>
        <mxCell id="o4MGyngnCkDarMU_6XpX-8" value="FK_AAV" style="text;strokeColor=none;fillColor=none;spacingLeft=4;spacingRight=4;overflow=hidden;rotatable=0;points=[[0,0.5],[1,0.5]];portConstraint=eastwest;fontSize=12;whiteSpace=wrap;html=1;" vertex="1" parent="o4MGyngnCkDarMU_6XpX-6">
          <mxGeometry y="56" width="160" height="30" as="geometry" />
        </mxCell>
        <mxCell id="o4MGyngnCkDarMU_6XpX-9" style="edgeStyle=orthogonalEdgeStyle;rounded=0;orthogonalLoop=1;jettySize=auto;html=1;exitX=1;exitY=0.5;exitDx=0;exitDy=0;entryX=0;entryY=0.5;entryDx=0;entryDy=0;" edge="1" parent="1" source="QzqRH83dT1mqWbRdbADa-6" target="o4MGyngnCkDarMU_6XpX-6">
          <mxGeometry relative="1" as="geometry" />
        </mxCell>
        <mxCell id="o4MGyngnCkDarMU_6XpX-11" value="représente les acquis d&#39;apprentissage pour lequel le&amp;nbsp;&lt;div&gt;cours contribue&lt;/div&gt;" style="text;html=1;align=center;verticalAlign=middle;resizable=0;points=[];autosize=1;strokeColor=none;fillColor=none;" vertex="1" parent="1">
          <mxGeometry x="660" y="100" width="300" height="40" as="geometry" />
        </mxCell>
        <mxCell id="o4MGyngnCkDarMU_6XpX-12" style="edgeStyle=orthogonalEdgeStyle;rounded=0;orthogonalLoop=1;jettySize=auto;html=1;entryX=0.5;entryY=1.033;entryDx=0;entryDy=0;entryPerimeter=0;" edge="1" parent="1" source="QzqRH83dT1mqWbRdbADa-10" target="o4MGyngnCkDarMU_6XpX-8">
          <mxGeometry relative="1" as="geometry" />
        </mxCell>
        <mxCell id="o4MGyngnCkDarMU_6XpX-20" style="edgeStyle=orthogonalEdgeStyle;rounded=0;orthogonalLoop=1;jettySize=auto;html=1;entryX=1;entryY=0.5;entryDx=0;entryDy=0;" edge="1" parent="1" source="o4MGyngnCkDarMU_6XpX-15">
          <mxGeometry relative="1" as="geometry">
            <mxPoint x="880" y="471" as="targetPoint" />
          </mxGeometry>
        </mxCell>
        <mxCell id="o4MGyngnCkDarMU_6XpX-15" value="élément_constitutif" style="swimlane;fontStyle=0;childLayout=stackLayout;horizontal=1;startSize=30;horizontalStack=0;resizeParent=1;resizeParentMax=0;resizeLast=0;collapsible=1;marginBottom=0;whiteSpace=wrap;html=1;" vertex="1" parent="1">
          <mxGeometry x="1020" y="336" width="140" height="90" as="geometry" />
        </mxCell>
        <mxCell id="o4MGyngnCkDarMU_6XpX-16" value="fk_UE_parent" style="text;strokeColor=none;fillColor=none;align=left;verticalAlign=middle;spacingLeft=4;spacingRight=4;overflow=hidden;points=[[0,0.5],[1,0.5]];portConstraint=eastwest;rotatable=0;whiteSpace=wrap;html=1;" vertex="1" parent="o4MGyngnCkDarMU_6XpX-15">
          <mxGeometry y="30" width="140" height="30" as="geometry" />
        </mxCell>
        <mxCell id="o4MGyngnCkDarMU_6XpX-22" style="edgeStyle=orthogonalEdgeStyle;rounded=0;orthogonalLoop=1;jettySize=auto;html=1;" edge="1" parent="o4MGyngnCkDarMU_6XpX-15" source="o4MGyngnCkDarMU_6XpX-17">
          <mxGeometry relative="1" as="geometry">
            <mxPoint x="-140" y="75" as="targetPoint" />
          </mxGeometry>
        </mxCell>
        <mxCell id="o4MGyngnCkDarMU_6XpX-17" value="fk_UE_child" style="text;strokeColor=none;fillColor=none;align=left;verticalAlign=middle;spacingLeft=4;spacingRight=4;overflow=hidden;points=[[0,0.5],[1,0.5]];portConstraint=eastwest;rotatable=0;whiteSpace=wrap;html=1;" vertex="1" parent="o4MGyngnCkDarMU_6XpX-15">
          <mxGeometry y="60" width="140" height="30" as="geometry" />
        </mxCell>
        <mxCell id="o4MGyngnCkDarMU_6XpX-19" style="edgeStyle=orthogonalEdgeStyle;rounded=0;orthogonalLoop=1;jettySize=auto;html=1;" edge="1" parent="1" source="QzqRH83dT1mqWbRdbADa-12" target="o4MGyngnCkDarMU_6XpX-15">
          <mxGeometry relative="1" as="geometry" />
        </mxCell>
        <mxCell id="o4MGyngnCkDarMU_6XpX-21" value="une unité d&#39;enseignement peut être composé&lt;div&gt;de plusieurs autres unité d&#39;enseignement&lt;/div&gt;" style="text;html=1;align=center;verticalAlign=middle;resizable=0;points=[];autosize=1;strokeColor=none;fillColor=none;" vertex="1" parent="1">
          <mxGeometry x="970" y="280" width="260" height="40" as="geometry" />
        </mxCell>
      </root>
    </mxGraphModel>
  </diagram>
</mxfile>
